# xmcd
#
# Track frame offsets:
#	150
#	11980
#	25117
#	37187
#	51152
#	65077
#	75572
#	86680
#	95760
#	107730
#
# Disc length: 1592 seconds
#
# Revision: 0
# Processed by: cddbd v1.5.2PL0 Copyright (c) Steve Scherf et al.
# Submitted via: dBpowerAMP V4.0
#
DISCID=8406360a
DTITLE=Lightnin' Hopkins - Blues Story
DYEAR=1900
DGENRE=
TTITLE0=Just Sitting Don't Thinkin'
TTITLE1=Jack Head Boogie
TTITLE2=Lonsome Dog Blues
TTITLE3=Tell Me Pretty Mama
TTITLE4=Last Affair
TTITLE5=Don't Keep My Baby Long
TTITLE6=Santa Fe Blues
TTITLE7=Give Me Back That Wig
TTITLE8=Someday
TTITLE9=Ain't It Lonesome
EXTD=
EXTT0=
EXTT1=
EXTT2=
EXTT3=
EXTT4=
EXTT5=
EXTT6=
EXTT7=
EXTT8=
EXTT9=
PLAYORDER=
